<svg width="10" height="10" viewBox="0 0 10 10" fill="none" xmlns="http://www.w3.org/2000/svg">
<path d="M9.95321 1.42465V7.78861C9.95321 7.98787 9.87406 8.17897 9.73316 8.31986C9.59226 8.46076 9.40117 8.53991 9.20191 8.53991C9.00265 8.53992 8.81156 8.46076 8.67066 8.31986C8.52976 8.17897 8.45061 7.98787 8.45061 7.78861L8.45149 3.23661L1.95495 9.73316C1.8143 9.87381 1.62353 9.95283 1.42462 9.95283C1.22571 9.95283 1.03494 9.87381 0.89429 9.73316C0.753638 9.59251 0.67462 9.40174 0.67462 9.20283C0.67462 9.00391 0.753638 8.81315 0.89429 8.6725L7.39083 2.17595L2.83839 2.17463C2.63913 2.17463 2.44804 2.09547 2.30714 1.95458C2.16625 1.81368 2.08709 1.62258 2.08709 1.42333C2.08709 1.22407 2.16625 1.03297 2.30714 0.892077C2.44804 0.751181 2.63913 0.672026 2.83839 0.672026H9.20235C9.30114 0.671913 9.39897 0.691315 9.49024 0.729119C9.5815 0.766924 9.6644 0.822386 9.73417 0.892319C9.80394 0.962253 9.85921 1.04528 9.8968 1.13663C9.93439 1.22799 9.95356 1.32587 9.95321 1.42465Z" fill="white"/>
</svg>
